<svg xmlns="http://www.w3.org/2000/svg" data-name="Layer 1" width="1151.5635" height="842.24197" viewBox="0 0 1151.5635 842.24197" xmlns:xlink="http://www.w3.org/1999/xlink"><title>sunlight</title><path d="M1080.33549,309.07821h-.00006c-22.0216,0-39.87364,19.81184-39.87364,44.251v31.0502h9.54961l5.52868-11.50435-1.38218,11.50435h61.38126l5.02608-10.4585-1.25651,10.4585h6.91087v-24.38C1126.2196,331.87644,1105.67658,309.07821,1080.33549,309.07821Z" transform="translate(-24.21825 -28.87901)" fill="#2f2e41"/><path d="M1042.88322,452.6347l-6.62276,25.38724,61.81242-2.20758-1.1038-20.97207S1050.60977,442.70056,1042.88322,452.6347Z" transform="translate(-24.21825 -28.87901)" fill="#ffb9b9"/><polygon points="959.06 525.305 978.928 569.456 997.693 546.277 982.24 515.371 959.06 525.305" fill="#ffb9b9"/><polygon points="1008.731 687.562 1010.938 738.337 1035.222 738.337 1031.91 687.562 1008.731 687.562" fill="#ffb9b9"/><path d="M1004.25045,507.82436l11.03794,36.42517,16.55689,176.60691s15.45311,4.41518,26.491-1.10379l2.20759-24.28345,4.41517-139.07794s20.97207-11.03793,18.76448-26.491-7.72655-36.42517-7.72655-36.42517Z" transform="translate(-24.21825 -28.87901)" fill="#2f2e41"/><path d="M1038.468,755.074h-6.62276s-18.76448,19.86828-25.38724,22.07587-40.84035,20.97207-13.24552,24.28345,45.25552-11.03794,45.25552-11.03794,8.83035,5.519,20.97207,1.1038,5.519-17.66069,5.519-17.66069-6.16367-20.18749-6.39321-20.02789S1051.71356,763.90438,1038.468,755.074Z" transform="translate(-24.21825 -28.87901)" fill="#2f2e41"/><circle cx="1048.46738" cy="323.31051" r="25.38724" fill="#ffb9b9"/><path d="M1110.2146,385.30331l-11.67815,9.73547-1.56737,1.30247-1.10379,13.24551h-43.04794s5.87219-5.08847,11.32493-10.35358c.11036-.1214.23176-.25385.36427-.37532.73953-.71743,1.40178-1.37974,1.99787-1.97577.32007-.33112.6291-.64021.90505-.92721.45259-.47462.89414-.92715,1.33561-1.37974a.03829.03829,0,0,0,.01105-.022,43.07955,43.07955,0,0,0,3.17893-3.73083l.01105-.011a12.81791,12.81791,0,0,0,.73952-1.09274c3.31138-5.519-4.41517-16.5569-4.41517-16.5569l24.28345-12.14173c.84994,11.96508,10.97171,19.95654,15.49723,22.95889C1109.37571,384.85072,1110.2146,385.30331,1110.2146,385.30331Z" transform="translate(-24.21825 -28.87901)" fill="#ffb9b9"/><path d="M1169.81943,570.74057c-16.5569,4.41517-17.66069-28.69862-17.66069-28.69862l-22.59765-45.1953a104.51533,104.51533,0,0,1-9.73594-30.31979l-5.19538-32.65665-1.57841,1.88745v.01105l-2.83676,1.41288-17.24124-27.59483-4.83462-7.72655v-8.83034l16.55689-7.72656h6.62276s.1435-.02209.39735-.04419c3.04648-.32008,22.87063-1.64464,23.8861,17.70489.39969,7.59413.36519,13.88569.15854,18.82226a145.76191,145.76191,0,0,0,3.84972,40.63177c1.16857,4.79412,2.44343,8.95772,3.7183,11.18873,4.41517,7.72655,19.86827,68.43518,19.86827,68.43518S1186.37633,566.3254,1169.81943,570.74057Z" transform="translate(-24.21825 -28.87901)" fill="#ffb9b9"/><path d="M1068.27046,397.445l-4.18335,7.62718-2.47256,4.51454L1049.506,431.66263s-3.43278,2.80361-8.99594,6.42408c-9.24979,6.01562-24.4159,14.272-39.571,15.65178-24.28345,2.20759-1.10379-76.16173-1.10379-76.16173s7.72655-30.90621,18.76449-27.59483,2.20758,14.34931-5.519,35.32138S1011.977,429.455,1011.977,429.455s23.17965-14.34931,35.32138-25.38724c6.32471-5.75079,11.75542-7.30711,15.49723-7.4727h.011a14.05473,14.05473,0,0,1,3.69775.287A8.35071,8.35071,0,0,1,1068.27046,397.445Z" transform="translate(-24.21825 -28.87901)" fill="#ffb9b9"/><path d="M1071.93506,390.82228c-.04413.1214-.56294,1.10379-4.52559,5.1326A53.271,53.271,0,0,0,1071.93506,390.82228Z" transform="translate(-24.21825 -28.87901)" fill="#d0cde1"/><path d="M1114.07788,434.42211l-1.02652,1.3466-16.08228,27.90392s-20.97207-7.72655-36.42517-9.93414a21.64727,21.64727,0,0,0-22.06482,9.901l4.40413-17.62754-2.37319-7.92523c-.27594-.92721-.596-1.95373-.93819-3.1127-3.31138-11.03793,8.83034-23.17966,8.83034-23.17966l14.39344-15.19925h.011a14.05473,14.05473,0,0,1,3.69775.287c-.59609.596-1.25834,1.25834-1.99787,1.97577-.13251.12147-.25391.25392-.36427.37532-4.22754,4.3158-2.031,5.519-.05517,5.839a9.71986,9.71986,0,0,0,1.97576.09937c4.6028.66225,14.68044-3.3776,22.07587-6.75521,5.03329-2.29591,8.83034-4.28272,8.83034-4.28272l9.63609-8.83035,1.446-1.32456c1.32457.872,2.16346,1.32456,2.16346,1.32456h1.10379s.1435-.02209.39735-.04419l-5.02587,3.72943a18.68469,18.68469,0,0,0-7.5132,16.183h0Z" transform="translate(-24.21825 -28.87901)" fill="#d0cde1"/><path d="M1053.92115,465.88022l-16.1372,6.30165s-87.61936-33.89648-100.86488-6.30165,46.35931,93.82242,46.35931,93.82242l26.491-12.14173-11.03793-33.11379s64.02,54.08586,90.511,24.28345,8.83035-71.94211,8.83035-71.94211S1081.516,453.73849,1053.92115,465.88022Z" transform="translate(-24.21825 -28.87901)" fill="#2f2e41"/><path d="M1007.56183,586.19367l-9.93413,7.72656s8.83034,35.32138,5.519,40.84034-9.93414,20.97208,2.20759,19.86828,25.38724-19.86828,26.491-26.491,8.83035-26.491,8.83035-26.491,13.24552-30.90621,3.31138-32.01-25.75662-1.84256-25.75662-1.84256Z" transform="translate(-24.21825 -28.87901)" fill="#2f2e41"/><path d="M1091.67085,321.26789a20.91185,20.91185,0,0,0-16.50006-8.4201h-.78284c-15.09365,0-27.32941,13.658-27.32941,30.50606v.00006h5.05749l.81677-6.217,1.19755,6.217H1084.126l2.51307-5.25968-.62828,5.25968h5.901q4.13043,20.51274-11.86947,41.02548h10.05221l5.02608-10.51935-1.2565,10.51935h19.162l3.76958-24.19458C1116.79567,342.06532,1106.26771,326.70034,1091.67085,321.26789Z" transform="translate(-24.21825 -28.87901)" fill="#2f2e41"/><circle cx="971.03374" cy="113.59071" r="91" fill="#ff6584"/><path d="M771.29477,567.032c-1.6806,13.391-3.05862,26.28082-4.18757,38.571h36.55924q1.99625-19.38064,5.00548-38.571Z" transform="translate(-24.21825 -28.87901)" fill="#3f3d56"/><path d="M801.19676,703.21105q-1.17629-19.19032-.9509-38.571H763.184c-.60171,14.7787-.83742,27.751-.88075,38.571Z" transform="translate(-24.21825 -28.87901)" fill="#3f3d56"/><path d="M864.4142,361.58256C894.89157,280.388,924.75032,225.797,924.75032,225.797L893.6574,207.29872c-32.37571,48.82045-56.84558,101.59229-75.3218,154.28384Z" transform="translate(-24.21825 -28.87901)" fill="#3f3d56"/><path d="M766.21242,615.836c-1.14212,13.751-1.97242,26.66388-2.56481,38.571h36.792q.53185-19.28516,2.25137-38.571Z" transform="translate(-24.21825 -28.87901)" fill="#3f3d56"/><path d="M778.50126,518.22788c-2.24695,13.1965-4.19314,26.08124-5.8747,38.571h37.70491q3.28452-19.4853,7.41146-38.571Z" transform="translate(-24.21825 -28.87901)" fill="#3f3d56"/><path d="M814.82354,371.81567q-6.5049,19.34635-11.981,38.571h44.39012c4.3882-13.35371,8.88306-26.24037,13.39195-38.571Z" transform="translate(-24.21825 -28.87901)" fill="#3f3d56"/><path d="M787.981,469.42381q-4.29519,19.6076-7.68675,38.571H820.004q4.44783-19.61091,9.56837-38.571Z" transform="translate(-24.21825 -28.87901)" fill="#3f3d56"/><path d="M762.3185,713.44417c.12069,16.62136.66994,25.97636.66994,25.97636l-.39358,7.478h43.29393q-2.59815-16.58382-3.96368-33.4544Z" transform="translate(-24.21825 -28.87901)" fill="#3f3d56"/><path d="M799.97844,420.61974q-5.32646,19.46534-9.69876,38.571H832.379q5.53043-19.7784,11.542-38.571Z" transform="translate(-24.21825 -28.87901)" fill="#3f3d56"/><path d="M1110.252,261.1651c-15.40963-32.21182-30.90977-56.23791-46.0196-73.94267l-7.89046,12.123.671-20.13755a158.22113,158.22113,0,0,0-16.6583-15.2789L1029.57149,180.496l.78947-23.69016a99.14041,99.14041,0,0,0-20.48314-10.11247l-7.97482,12.25252.48352-14.50965c-27.51475-6.905-50.1228,2.55337-63.22081,10.629l-7.86615-1.17354,13.49035-5.63347a99.1429,99.1429,0,0,0-6.25118-21.97146l-23.44384-3.4975L933.3355,115.172a158.21342,158.21342,0,0,0-12.02277-19.14149l-19.92822-2.973,13.34774-5.574c-14.68838-18.056-35.52378-37.63644-64.42682-58.60454,0,0-2.13827,18.67657-3.3293,44.71673l19.575,20.025-20.111-5.20116c-.21044,7.9976-.30047,16.41755-.20141,25.00812l14.43606,14.76794-14.20045-3.67257c.20688,6.56884.54118,13.17147,1.02835,19.7a77.7484,77.7484,0,0,0-37.38522.21323l.48352,14.50965-7.97482-12.25252A99.14066,99.14066,0,0,0,782.143,156.80588l.78947,23.69016L772.14939,163.929a158.22118,158.22118,0,0,0-16.65831,15.2789l.671,20.13755-7.89046-12.123c-15.10983,17.70476-30.61,41.73085-46.0195,73.94267,0,0,18.75584-1.2664,44.58355-4.79292l16.16488-22.86653L761.513,254.225c7.90429-1.2359,16.20236-2.66638,24.63409-4.31364l11.92111-16.86355-1.05035,14.63006c11.76-2.54214,23.55587-5.52,34.6978-8.989l8.00048,7.44239-14.31143-2.98448a99.14327,99.14327,0,0,0-7.27222,21.65494l17.35524,16.14443-19.35091-4.03541a158.216,158.216,0,0,0-.91179,22.58566l14.75256,13.72341-14.16008-2.95292c1.90026,23.19813,8.00769,51.13034,19.98347,84.7701,0,0,12.327-14.19261,28.03786-34.99356l-4.81657-27.58585,13.64313,15.66426c4.697-6.47636,9.53377-13.36913,14.311-20.50951l-3.55213-20.344L893.0578,318.329c9.67465-15.1043,18.722-30.948,25.38657-46.03838A385.08247,385.08247,0,0,0,946.086,304.50881l7.38-12.67579.33948,20.64894c6.03555,6.11391,12.08293,11.97343,17.91467,17.45027l10.45191-17.95172.46027,27.99943c19.34428,17.473,34.12174,29.09258,34.12174,29.09258,5.43182-35.29231,6.17421-63.8748,3.67531-87.01609l-13.35149,5.56466,11.9067-16.25425a158.22134,158.22134,0,0,0-5.14539-22.01061l-18.246,7.60454,8.67646-11.84438q5.59182,1.34816,11.21649,2.56145l-1.05035-14.63006,11.92111,16.86355c8.43173,1.64726,16.7298,3.07774,24.63409,4.31364l-1.48755-20.71932,16.16488,22.86653C1091.49615,259.8987,1110.252,261.1651,1110.252,261.1651Z" transform="translate(-24.21825 -28.87901)" fill="#e6a23c"/><path d="M706.516,543.343c1.1863,9.45251,2.159,18.55119,2.95593,27.2266H683.6654q-1.40913-13.68048-3.53328-27.2266Z" transform="translate(-24.21825 -28.87901)" fill="#3f3d56"/><path d="M685.40871,639.4695q.83031-13.54614.67122-27.2266h26.16136c.42474,10.432.59112,19.589.62171,27.2266Z" transform="translate(-24.21825 -28.87901)" fill="#3f3d56"/><path d="M640.78457,398.31967c-21.51346-57.31385-42.59025-95.84872-42.59025-95.84872l21.948-13.05765c22.85347,34.46154,40.12634,71.71229,53.16839,108.90637Z" transform="translate(-24.21825 -28.87901)" fill="#3f3d56"/><path d="M710.10356,577.79293c.8062,9.70662,1.3923,18.82158,1.81046,27.22659H685.94319q-.37542-13.61307-1.5892-27.22659Z" transform="translate(-24.21825 -28.87901)" fill="#3f3d56"/><path d="M701.42907,508.893c1.58609,9.31519,2.95987,18.41031,4.14686,27.22659H678.96066q-2.31847-13.75434-5.23162-27.22659Z" transform="translate(-24.21825 -28.87901)" fill="#3f3d56"/><path d="M675.78979,405.54305q4.59169,13.65627,8.45716,27.2266H652.91271c-3.09755-9.42616-6.2704-18.52264-9.45315-27.2266Z" transform="translate(-24.21825 -28.87901)" fill="#3f3d56"/><path d="M694.73746,474.443q3.0319,13.84068,5.42595,27.2266H672.133q-3.13965-13.843-6.75415-27.2266Z" transform="translate(-24.21825 -28.87901)" fill="#3f3d56"/><path d="M712.85221,646.69288c-.08519,11.73274-.47289,18.33627-.47289,18.33627l.27782,5.27863H682.09668q1.834-11.70624,2.79789-23.6149Z" transform="translate(-24.21825 -28.87901)" fill="#3f3d56"/><path d="M686.26869,439.993q3.75987,13.74026,6.8462,27.22659H663.39766q-3.90382-13.96124-8.14726-27.22659Z" transform="translate(-24.21825 -28.87901)" fill="#3f3d56"/><path d="M467.25181,327.43668c10.87739-22.73779,21.81868-39.6974,32.48446-52.1949l5.56974,8.55742-.47364-14.21476a111.68489,111.68489,0,0,1,11.75882-10.78512l7.61163,11.69442-.55728-16.72249a69.98142,69.98142,0,0,1,14.4587-7.13822l5.6293,8.64885-.34131-10.24212c19.4222-4.8741,35.38084,1.80238,44.62651,7.50279l5.55258-.82838-9.52261-3.97657a69.98374,69.98374,0,0,1,4.4126-15.50928l16.54861-2.46883-12.87573-5.37687a111.68,111.68,0,0,1,8.48667-13.51166l14.067-2.09862-9.422-3.93455c10.36829-12.74544,25.07564-26.56694,45.47782-41.368,0,0,1.50937,13.18347,2.35009,31.56478l-13.81766,14.1353,14.196-3.67141c.14854,5.64537.21209,11.58887.14216,17.65281l-10.19016,10.42444,10.02385-2.59241c-.146,4.63684-.382,9.29752-.72589,13.90591a54.88123,54.88123,0,0,1,26.3896.15051l-.34131,10.24212,5.62929-8.64885a69.98117,69.98117,0,0,1,14.4587,7.13822l-.55727,16.72249,7.61163-11.69442a111.68687,111.68687,0,0,1,11.75882,10.78512l-.47364,14.21476,5.56974-8.55742c10.66577,12.4975,21.60706,29.45711,32.48439,52.1949,0,0-13.23943-.89394-31.47078-3.38325l-11.41052-16.1411,1.05,14.62542c-5.57951-.8724-11.437-1.88215-17.38879-3.04492l-8.41491-11.9037.74142,10.32711c-8.30116-1.79445-16.62769-3.8965-24.49259-6.34518l-5.6474,5.25346,10.10219-2.10669a69.98325,69.98325,0,0,1,5.13334,15.28586L661.2033,341.39976l13.65948-2.84853a111.68285,111.68285,0,0,1,.64362,15.94284l-10.41359,9.68713,9.99537-2.08442c-1.34137,16.37518-5.6525,36.092-14.106,59.83779,0,0-8.70142-10.01832-19.79145-24.70136l3.39993-19.47239L634.96021,388.818c-3.31556-4.57156-6.72974-9.437-10.10193-14.47732l2.50739-14.36046-6.80014,7.80752A247.60106,247.60106,0,0,1,602.64558,335.29a271.82334,271.82334,0,0,1-19.51173,22.74229l-5.20944-8.94763-.23963,14.57574c-4.2604,4.31571-8.52914,8.45185-12.64567,12.31786l-7.37783-12.67182-.32489,19.76432c-13.65481,12.33393-24.086,20.536-24.086,20.536-3.83423-24.91224-4.35827-45.08815-2.59434-61.4232l9.4246,3.928-8.40474-11.47361a111.68612,111.68612,0,0,1,3.632-15.53692l12.87953,5.36792-6.12457-8.36075q-3.94716.95164-7.91753,1.80808l.74143-10.32711-8.41492,11.9037c-5.95181,1.16277-11.80928,2.17252-17.38879,3.04492l1.05-14.62542-11.41052,16.1411C480.49124,326.54274,467.25181,327.43668,467.25181,327.43668Z" transform="translate(-24.21825 -28.87901)" fill="#e6a23c"/><ellipse cx="379.53374" cy="720.59071" rx="147.5" ry="14" fill="#3f3d56"/><ellipse cx="734.53374" cy="720.59071" rx="147.5" ry="14" fill="#3f3d56"/><path d="M870.752,606.96972s10.65,73.95-40.48,117.67c-33.09,28.29-80.27,32.92-118.99,13.01-14.38-7.39-29.72-18.62-44.37006-35.57a191.08437,191.08437,0,0,1-15.26-20.3,242.48469,242.48469,0,0,1-17.73-32.37q-4.8-10.485-9.17-22.44c-.56-1.53-1.08-3.03-1.58-4.52-26.55-78.91,25.09-101.93,72.49-107.45a243.44911,243.44911,0,0,1,29.96-1.51,268.64314,268.64314,0,0,1,35.13,2.48s.97.01,2.72.08a210.98673,210.98673,0,0,1,26.93005,2.99C827.022,525.46972,883.072,545.38971,870.752,606.96972Z" transform="translate(-24.21825 -28.87901)" fill="#e6a23c"/><path d="M544.752,626.96972c-23.34,64.07-56.95,95.47-86.53,110.68-38.72,19.91-85.9,15.28-118.99-13.01a104.52345,104.52345,0,0,1-9-8.67,108.90024,108.90024,0,0,1-15.01-20.66,128.65459,128.65459,0,0,1-12.09-30.09,161.53735,161.53735,0,0,1-5.17-35.23,140.93566,140.93566,0,0,1,.79-23.02c-11.53-57.65,36.85-78.78,73.12-86.52a215.32462,215.32462,0,0,1,31.83-4.29c3.21-.18,5.05-.19,5.05-.19a276.07877,276.07877,0,0,1,57.57-1.71C516.412,518.29968,576.402,540.09973,544.752,626.96972Z" transform="translate(-24.21825 -28.87901)" fill="#e6a23c"/><path d="M403.702,516.15973l-100.57,149.06a161.53735,161.53735,0,0,1-5.17-35.23l73.91-109.54A215.32462,215.32462,0,0,1,403.702,516.15973Z" transform="translate(-24.21825 -28.87901)" fill="#fff" opacity="0.2"/><path d="M466.322,514.2597l-136.09,201.71a108.90024,108.90024,0,0,1-15.01-20.66l122.6-181.71A262.51415,262.51415,0,0,1,466.322,514.2597Z" transform="translate(-24.21825 -28.87901)" fill="#fff" opacity="0.2"/><path d="M725.622,513.48968l-91.7,135.92q-4.8-10.485-9.17-22.44c-.56-1.53-1.08-3.03-1.58-4.52l72.49-107.45A243.44911,243.44911,0,0,1,725.622,513.48968Z" transform="translate(-24.21825 -28.87901)" fill="#fff" opacity="0.2"/><path d="M790.402,519.03973l-123.49,183.04a191.08437,191.08437,0,0,1-15.26-20.3l111.81995-165.73A210.98673,210.98673,0,0,1,790.402,519.03973Z" transform="translate(-24.21825 -28.87901)" fill="#fff" opacity="0.2"/><path d="M894.752,599.96972H871.86472c10.12915-83.03949-111.11273-84-111.11273-84a276.47448,276.47448,0,0,0-58-1.67132v-.32868h-237v.24872a276.75793,276.75793,0,0,0-57,1.75128s-121.24188.96051-111.11273,84H275.752v22H297.8389c-.22119,23.90107,4.52283,71.14319,41.39307,102.67,33.09,28.29,80.27,32.92,118.99,13.01,29.58-15.21,63.19-46.61,86.53-110.68,7.996-21.94982,10.13965-39.74377,8.07287-54.14819a635.39219,635.39219,0,0,1,63.85425,0c-2.06677,14.40442.07684,32.19837,8.07288,54.14819,23.34,64.07,56.95,95.47,86.53,110.68,38.72,19.91,85.9,15.28,118.99-13.01,36.87024-31.5268,41.61425-78.76892,41.39306-102.67H894.752Zm-360.54,27.41c-22.21,60.97-54.61,89.49-82.4,102.65-33.81,16.01-74.1,11.56-103.12-12.03-35.08-28.52-39.75-72.35-39.62-94.69.06-8.88-.34-17.74-.69-26.61-2.77-69.71,101.83-70.53,101.83-70.53S580.722,499.72973,534.212,627.3797Zm83.38928-59.56537a424.54686,424.54686,0,0,0-65.69861,0c-5.48632-24.48639-23.97729-38.28705-45.937-45.84461H663.53824C641.57859,529.52728,623.08762,543.32794,617.60129,567.81433ZM862.202,596.3797c-.36,8.95-.76,17.9-.7,26.85.14,22.55-4.58,66.79-39.98,95.56-29.28,23.81-69.92005,28.31-104.03,12.17-28.06-13.27-60.78-42.05-83.21-103.62-46.93006-128.83,125.15-102.14,125.15-102.14S864.992,526.01971,862.202,596.3797Z" transform="translate(-24.21825 -28.87901)" fill="#3f3d56"/><path d="M428.14356,741.71275c-.11325-.18506-2.78356-4.64376-3.70932-13.90237-.84914-8.49429-.30313-22.81207,7.12226-42.7842,14.06719-37.83586-3.24186-68.36391-3.41872-68.668l.854-.49541a75.78134,75.78134,0,0,1,7.14973,20.25453,88.3638,88.3638,0,0,1-3.65968,49.253c-14.04309,37.77129-3.60282,55.65189-3.49584,55.82827Z" transform="translate(-24.21825 -28.87901)" fill="#3f3d56"/><circle cx="398.4247" cy="578.84223" r="6.41529" fill="#3f3d56"/><circle cx="418.65754" cy="602.52946" r="6.41529" fill="#3f3d56"/><circle cx="404.83999" cy="618.32095" r="6.41529" fill="#fff"/><circle cx="421.61845" cy="631.64502" r="6.41529" fill="#fff"/><circle cx="399.90515" cy="652.37134" r="6.41529" fill="#3f3d56"/><path d="M432.01914,741.94889s-6.41529-15.79149,12.83059-27.63511Z" transform="translate(-24.21825 -28.87901)" fill="#3f3d56"/><path d="M424.12933,741.66244s-2.91966-16.79294-25.51732-16.649Z" transform="translate(-24.21825 -28.87901)" fill="#3f3d56"/><path d="M363.072,370.10974a6.35543,6.35543,0,0,1-2.83,5.21l-.24.15h-106.8l.43-1.31c.07-.23,7.89-22.92005,42.5-18.54,3.26-1.12,35.12-11.52,54.19.17C358.782,360.96972,363.072,365.78973,363.072,370.10974Z" transform="translate(-24.21825 -28.87901)" fill="#f1f1f1"/><path d="M561.072,447.10974a6.35543,6.35543,0,0,1-2.83,5.21l-.24.15h-106.8l.43-1.31c.07-.23,7.89-22.92005,42.5-18.54,3.26-1.12,35.12-11.52,54.19.17C556.782,437.96972,561.072,442.78973,561.072,447.10974Z" transform="translate(-24.21825 -28.87901)" fill="#f1f1f1"/><path d="M606.072,137.10974a6.35543,6.35543,0,0,1-2.83,5.21l-.24.15h-106.8l.43-1.31c.07-.23,7.89-22.92,42.5-18.54,3.26-1.12,35.12-11.52,54.19.17C601.782,127.96972,606.072,132.78973,606.072,137.10974Z" transform="translate(-24.21825 -28.87901)" fill="#f1f1f1"/><path d="M53.17754,652.8835l9.13713,28.28159s-8.26692,26.54118-4.351,56.12807,1.7404,30.4571,1.7404,30.4571-39.12624-2.25247-35.21033,9.49526,42.172,4.86308,42.172,4.86308,7.34723-1.97821,10.828-22.86308S89.72606,698.134,89.72606,698.134l-8.22935-37.97489Z" transform="translate(-24.21825 -28.87901)" fill="#ffb8b8"/><path d="M56.22325,595.015S39.6894,601.10644,39.6894,617.64029s6.09142,39.15912,10.00733,40.46443,30.022,19.14446,34.80811,6.52652S56.22325,595.015,56.22325,595.015Z" transform="translate(-24.21825 -28.87901)" fill="#d0cde1"/><polygon points="170.367 761.932 205.175 760.626 231.717 756.71 223.885 782.816 159.49 784.557 170.367 761.932" fill="#ffb8b8"/><path d="M244.62214,794.29144s-.43511-9.57223-4.351-9.13713-1.3053-3.48081,2.17551-4.351,13.48814-5.22122,13.48814-5.22122l39.59422,2.61061S321.2,800.818,310.75754,813.0008s-37.41872,1.3053-37.41872,1.3053l-29.15179.4351S234.6148,799.07755,244.62214,794.29144Z" transform="translate(-24.21825 -28.87901)" fill="#2f2e41"/><polygon points="236.068 731.91 248.685 791.083 274.792 785.862 259.998 711.895 244.334 703.628 236.068 731.91" fill="#ffb8b8"/><path d="M110.17582,753.39191s-73.097,33.0677-42.20483,66.57051c0,0,0,15.66365,32.6326,12.61794s95.7223-8.702,98.768-6.96162,12.61793-34.373,4.351-36.11342-18.27426-3.91591-18.27426-3.91591,8.702-1.3053,8.702-8.702c0,0,24.80078-1.7404,32.1975-17.404S240.70622,732.072,240.70622,732.072l16.969,43.51013s19.57956-36.11341,34.373-20.01466c0,0-16.53385-103.98922-29.15179-113.56145s-21.32-12.61794-33.0677-3.91591-22.62527,30.89219-22.62527,30.89219Z" transform="translate(-24.21825 -28.87901)" fill="#2f2e41"/><path d="M284.65146,802.12326a98.03577,98.03577,0,0,0-8.702,7.39673c-3.48081,3.48081-8.26692,1.7404-8.702,0s-8.26692,1.3053-9.13712,13.92324-6.09142,23.93057,7.83182,27.84648,13.48814,15.22855,13.48814,15.22855a46.93427,46.93427,0,0,0,35.24321,2.17551c19.57956-6.52652,12.61794-13.48814,12.61794-13.48814l-26.10608-43.075S294.22369,799.07755,284.65146,802.12326Z" transform="translate(-24.21825 -28.87901)" fill="#2f2e41"/><path d="M212.42464,586.313s41.76972,14.35834,46.12074,17.404,23.93057,17.404,14.35834,24.80078-17.40405,12.18283-36.11341,6.52652S197.19609,611.984,197.19609,611.984Z" transform="translate(-24.21825 -28.87901)" fill="#ffb8b8"/><path d="M170.65491,567.16854s16.53385-3.04571,28.28158,3.48081,21.75507,19.57956,21.75507,19.57956S209.814,613.28928,201.9822,616.77009,179.792,602.84685,179.792,602.84685Z" transform="translate(-24.21825 -28.87901)" fill="#d0cde1"/><path d="M94.51217,554.5506s.4351,16.96895-1.3053,18.70936,20.88486,53.08236,45.68564,30.45709,5.65632-31.7624,5.65632-31.7624-9.13713-16.969-8.702-18.70936-40.46443,0-40.46443,0Z" transform="translate(-24.21825 -28.87901)" fill="#ffb8b8"/><path d="M94.51217,554.5506s.4351,16.96895-1.3053,18.70936,20.88486,53.08236,45.68564,30.45709,5.65632-31.7624,5.65632-31.7624-9.13713-16.969-8.702-18.70936-40.46443,0-40.46443,0Z" transform="translate(-24.21825 -28.87901)" opacity="0.1"/><path d="M101.47379,587.1832s16.53385,11.31263,23.49548,8.702,15.66364-13.92325,16.53385-14.79345,45.25054,88.32557,45.25054,88.32557-6.52652,32.6326-23.93058,42.20483-17.1865,17.18651-19.362,23.713-30.23954-20.66732-30.23954-20.66732L95.38237,638.96026V592.83952Z" transform="translate(-24.21825 -28.87901)" fill="#d0cde1"/><path d="M94.29462,566.951s-5.43877-1.08776-11.09508,3.69836S51.002,593.27462,52.30734,595.015s13.053,26.54118,15.66365,36.54852,6.52652,11.31263,6.52652,11.31263,9.13713,6.52652,7.83182,11.31264-6.96162,70.05131.87021,84.40966,6.52652,26.97628,4.351,30.45709,20.88486-10.00733,20.88486-10.00733,34.373-27.84649,36.98362-36.11341a97.263,97.263,0,0,0,3.48081-17.40406s-22.19017-87.89047-29.15179-92.67658S94.29462,566.951,94.29462,566.951Z" transform="translate(-24.21825 -28.87901)" fill="#575a89"/><path d="M142.0946,567.29509s10.72115-6.65307,12.89666-4.91267,22.62527,1.74041,23.06037,3.48081,1.3053,43.51014,16.09875,54.38767,5.22122,32.6326,5.22122,32.6326l10.87753,17.40406s-59.17285,56.99362-55.25787,37.41871c.21755-1.08775,0-1.3053,0-1.3053s-23.06037-98.768-20.01466-103.98922S143.55629,573.51306,142.0946,567.29509Z" transform="translate(-24.21825 -28.87901)" fill="#575a89"/><path d="M233.3095,607.19786l-59.17378,20.44976s-58.73868,13.92325-49.60156,30.022S172.39531,646.357,172.39531,646.357l78.7996-8.82909S282.476,611.11377,233.3095,607.19786Z" transform="translate(-24.21825 -28.87901)" fill="#ffb8b8"/><circle cx="93.78939" cy="509.57283" r="32.1975" fill="#ffb8b8"/><path d="M92.36668,506.4531l-5.95587-2.16578s12.45312-12.45312,29.77934-11.37019l-4.8731-4.873s11.91174-4.33148,22.74055,7.03872c5.69249,5.97707,12.27878,13.00279,16.38465,20.91719h6.37832l-2.66208,5.32415,9.31726,5.32415-9.56325-.95636a26.866,26.866,0,0,1-.90453,13.789l-2.16569,5.95579s-8.66312-17.32606-8.66312-19.49184v5.4144s-5.95587-4.87294-5.95587-8.12156l-3.24862,3.79009-1.62432-5.95587-20.0333,5.95587,3.24863-4.87294-12.45312,1.62431,4.8731-5.95587s-14.07744,7.03872-14.619,12.99459-7.58,13.536-7.58,13.536L81.538,538.93944S76.66493,514.57467,92.36668,506.4531Z" transform="translate(-24.21825 -28.87901)" fill="#2f2e41"/><path d="M146.61566,540.19858s1.05805,7.34674-4.02158,11.6902a10.68163,10.68163,0,0,1-11.82134,1.29251,14.7297,14.7297,0,0,1-4.40805-3.53378,18.98358,18.98358,0,0,1-1.516-2.01675,24.0899,24.0899,0,0,1-1.76144-3.21588q-.47687-1.04165-.911-2.22935c-.05564-.152-.1073-.301-.157-.449-2.63767-7.8395,2.49263-10.12648,7.20169-10.67488a24.18681,24.18681,0,0,1,2.97645-.15,26.68959,26.68959,0,0,1,3.49007.24639s.09637.001.27022.00794a20.96175,20.96175,0,0,1,2.67543.29706C142.2712,532.10177,147.83962,534.08077,146.61566,540.19858Z" transform="translate(-24.21825 -28.87901)" fill="#e6a23c"/><path d="M114.22842,542.18553c-2.31877,6.36518-5.65784,9.48469-8.59653,10.99576a10.68165,10.68165,0,0,1-11.82135-1.29251,10.38378,10.38378,0,0,1-.89412-.86134,10.81892,10.81892,0,0,1-1.49121-2.05252,12.78124,12.78124,0,0,1-1.2011-2.98936,16.04808,16.04808,0,0,1-.51363-3.5,14.00278,14.00278,0,0,1,.07848-2.287c-1.14547-5.72738,3.661-7.82659,7.26428-8.59554a21.39066,21.39066,0,0,1,3.16223-.42619c.3189-.01789.50171-.01888.50171-.01888a27.42839,27.42839,0,0,1,5.71942-.16989C111.41291,531.38944,117.37277,533.55522,114.22842,542.18553Z" transform="translate(-24.21825 -28.87901)" fill="#e6a23c"/><path d="M100.21547,531.17685l-9.99136,14.80871a16.04808,16.04808,0,0,1-.51363-3.5L97.05324,531.603A21.39066,21.39066,0,0,1,100.21547,531.17685Z" transform="translate(-24.21825 -28.87901)" fill="#fff" opacity="0.2"/><path d="M106.4366,530.98808,92.91642,551.02744a10.81892,10.81892,0,0,1-1.49121-2.05252l12.18-18.0524A26.08038,26.08038,0,0,1,106.4366,530.98808Z" transform="translate(-24.21825 -28.87901)" fill="#fff" opacity="0.2"/><path d="M132.19738,530.91158l-9.11016,13.5033q-.47687-1.04165-.911-2.22935c-.05564-.152-.1073-.301-.157-.449l7.20169-10.67488A24.18681,24.18681,0,0,1,132.19738,530.91158Z" transform="translate(-24.21825 -28.87901)" fill="#fff" opacity="0.2"/><path d="M138.6331,531.463l-12.26841,18.18454a18.98358,18.98358,0,0,1-1.516-2.01675l11.109-16.46485A20.96175,20.96175,0,0,1,138.6331,531.463Z" transform="translate(-24.21825 -28.87901)" fill="#fff" opacity="0.2"/><path d="M149,539.50315h-2.27379c1.0063-8.24976-11.03876-8.34518-11.03876-8.34518a27.46661,27.46661,0,0,0-5.76215-.166v-.03266H106.38v.02471a27.49535,27.49535,0,0,0-5.6628.174s-12.04507.09542-11.03876,8.34518H87.504v2.18564h2.19428c-.022,2.37451.44933,7.06789,4.11229,10.2a10.68165,10.68165,0,0,0,11.82135,1.29251c2.93869-1.51107,6.27776-4.63058,8.59653-10.99576a11.22868,11.22868,0,0,0,.802-5.37948,63.12484,63.12484,0,0,1,6.34375,0,11.22856,11.22856,0,0,0,.802,5.37948c2.31877,6.36518,5.65783,9.48469,8.59653,10.99576a10.68163,10.68163,0,0,0,11.82134-1.29251c3.663-3.1321,4.13427-7.82548,4.1123-10.2H149Zm-35.8187,2.72311c-2.20651,6.05721-5.42537,8.89059-8.18623,10.198a9.69145,9.69145,0,0,1-10.2447-1.19515c-3.48511-2.83339-3.94906-7.18778-3.93614-9.40721.006-.8822-.03378-1.76242-.06855-2.64363-.27519-6.92551,10.11654-7.007,10.11654-7.007S117.80194,529.54457,113.1813,542.22626Zm8.28451-5.91767a42.17881,42.17881,0,0,0-6.527,0c-.54505-2.43265-2.38208-3.80371-4.56371-4.55454h15.65441C123.84789,532.50488,122.01086,533.87594,121.46581,536.30859Zm24.30043,2.8379c-.03576.88916-.0755,1.77832-.06954,2.66748.01391,2.24028-.455,6.63541-3.97191,9.49363a9.77755,9.77755,0,0,1-10.33511,1.20906c-2.78768-1.31834-6.03833-4.17756-8.26669-10.29437-4.66238-12.79893,12.43332-10.14735,12.43332-10.14735S146.04342,532.15641,145.76624,539.14649Z" transform="translate(-24.21825 -28.87901)" fill="#3f3d56"/></svg>